<mxfile host="app.diagrams.net" agent="Mozilla/5.0 (Windows NT 10.0; Win64; x64) AppleWebKit/537.36 (KHTML, like Gecko) Chrome/131.0.0.0 Safari/537.36 Edg/131.0.0.0" version="24.8.6" pages="7">
  <diagram name="Bài 1" id="79fQa9J0rgEqIecemlRe">
    <mxGraphModel dx="786" dy="421" grid="1" gridSize="10" guides="1" tooltips="1" connect="1" arrows="1" fold="1" page="1" pageScale="1" pageWidth="850" pageHeight="1100" math="0" shadow="0">
      <root>
        <mxCell id="0" />
        <mxCell id="1" parent="0" />
        <mxCell id="LrL9HFIoTdSE9hvC5TXs-1" style="edgeStyle=orthogonalEdgeStyle;rounded=0;orthogonalLoop=1;jettySize=auto;html=1;" parent="1" source="LrL9HFIoTdSE9hvC5TXs-2" target="LrL9HFIoTdSE9hvC5TXs-4" edge="1">
          <mxGeometry relative="1" as="geometry">
            <mxPoint x="690" y="240" as="targetPoint" />
          </mxGeometry>
        </mxCell>
        <mxCell id="LrL9HFIoTdSE9hvC5TXs-2" value="STRAT" style="ellipse;whiteSpace=wrap;html=1;" parent="1" vertex="1">
          <mxGeometry x="640" y="90" width="120" height="80" as="geometry" />
        </mxCell>
        <mxCell id="LrL9HFIoTdSE9hvC5TXs-3" value="" style="edgeStyle=orthogonalEdgeStyle;rounded=0;orthogonalLoop=1;jettySize=auto;html=1;" parent="1" source="LrL9HFIoTdSE9hvC5TXs-4" target="LrL9HFIoTdSE9hvC5TXs-7" edge="1">
          <mxGeometry relative="1" as="geometry" />
        </mxCell>
        <mxCell id="LrL9HFIoTdSE9hvC5TXs-4" value="Input a, b" style="shape=parallelogram;perimeter=parallelogramPerimeter;whiteSpace=wrap;html=1;fixedSize=1;" parent="1" vertex="1">
          <mxGeometry x="630" y="210" width="120" height="60" as="geometry" />
        </mxCell>
        <mxCell id="LrL9HFIoTdSE9hvC5TXs-5" value="NO" style="edgeStyle=orthogonalEdgeStyle;rounded=0;orthogonalLoop=1;jettySize=auto;html=1;" parent="1" source="LrL9HFIoTdSE9hvC5TXs-7" target="LrL9HFIoTdSE9hvC5TXs-9" edge="1">
          <mxGeometry relative="1" as="geometry" />
        </mxCell>
        <mxCell id="LrL9HFIoTdSE9hvC5TXs-6" value="YES" style="edgeStyle=orthogonalEdgeStyle;rounded=0;orthogonalLoop=1;jettySize=auto;html=1;" parent="1" source="LrL9HFIoTdSE9hvC5TXs-7" target="LrL9HFIoTdSE9hvC5TXs-12" edge="1">
          <mxGeometry relative="1" as="geometry" />
        </mxCell>
        <mxCell id="LrL9HFIoTdSE9hvC5TXs-7" value="a=0" style="rhombus;whiteSpace=wrap;html=1;" parent="1" vertex="1">
          <mxGeometry x="650" y="340" width="80" height="80" as="geometry" />
        </mxCell>
        <mxCell id="LrL9HFIoTdSE9hvC5TXs-8" style="edgeStyle=orthogonalEdgeStyle;rounded=0;orthogonalLoop=1;jettySize=auto;html=1;entryX=1;entryY=0.5;entryDx=0;entryDy=0;" parent="1" source="LrL9HFIoTdSE9hvC5TXs-9" target="LrL9HFIoTdSE9hvC5TXs-17" edge="1">
          <mxGeometry relative="1" as="geometry" />
        </mxCell>
        <mxCell id="LrL9HFIoTdSE9hvC5TXs-9" value="Output : X= -b/a" style="shape=parallelogram;perimeter=parallelogramPerimeter;whiteSpace=wrap;html=1;fixedSize=1;" parent="1" vertex="1">
          <mxGeometry x="790" y="350" width="120" height="60" as="geometry" />
        </mxCell>
        <mxCell id="LrL9HFIoTdSE9hvC5TXs-10" value="No" style="edgeStyle=orthogonalEdgeStyle;rounded=0;orthogonalLoop=1;jettySize=auto;html=1;" parent="1" source="LrL9HFIoTdSE9hvC5TXs-12" target="LrL9HFIoTdSE9hvC5TXs-14" edge="1">
          <mxGeometry relative="1" as="geometry" />
        </mxCell>
        <mxCell id="LrL9HFIoTdSE9hvC5TXs-11" value="YES" style="edgeStyle=orthogonalEdgeStyle;rounded=0;orthogonalLoop=1;jettySize=auto;html=1;" parent="1" source="LrL9HFIoTdSE9hvC5TXs-12" target="LrL9HFIoTdSE9hvC5TXs-16" edge="1">
          <mxGeometry relative="1" as="geometry" />
        </mxCell>
        <mxCell id="LrL9HFIoTdSE9hvC5TXs-12" value="b=0" style="rhombus;whiteSpace=wrap;html=1;" parent="1" vertex="1">
          <mxGeometry x="650" y="500" width="80" height="80" as="geometry" />
        </mxCell>
        <mxCell id="LrL9HFIoTdSE9hvC5TXs-13" style="edgeStyle=orthogonalEdgeStyle;rounded=0;orthogonalLoop=1;jettySize=auto;html=1;entryX=0;entryY=0.5;entryDx=0;entryDy=0;" parent="1" source="LrL9HFIoTdSE9hvC5TXs-14" target="LrL9HFIoTdSE9hvC5TXs-17" edge="1">
          <mxGeometry relative="1" as="geometry" />
        </mxCell>
        <mxCell id="LrL9HFIoTdSE9hvC5TXs-14" value="Output : vô nghiệm&amp;nbsp;" style="shape=parallelogram;perimeter=parallelogramPerimeter;whiteSpace=wrap;html=1;fixedSize=1;" parent="1" vertex="1">
          <mxGeometry x="420" y="510" width="170" height="60" as="geometry" />
        </mxCell>
        <mxCell id="LrL9HFIoTdSE9hvC5TXs-15" value="" style="edgeStyle=orthogonalEdgeStyle;rounded=0;orthogonalLoop=1;jettySize=auto;html=1;" parent="1" source="LrL9HFIoTdSE9hvC5TXs-16" target="LrL9HFIoTdSE9hvC5TXs-17" edge="1">
          <mxGeometry relative="1" as="geometry" />
        </mxCell>
        <mxCell id="LrL9HFIoTdSE9hvC5TXs-16" value="Output : có nghiệm" style="shape=parallelogram;perimeter=parallelogramPerimeter;whiteSpace=wrap;html=1;fixedSize=1;" parent="1" vertex="1">
          <mxGeometry x="620" y="680" width="140" height="60" as="geometry" />
        </mxCell>
        <mxCell id="LrL9HFIoTdSE9hvC5TXs-17" value="END" style="ellipse;whiteSpace=wrap;html=1;" parent="1" vertex="1">
          <mxGeometry x="585" y="820" width="210" height="80" as="geometry" />
        </mxCell>
      </root>
    </mxGraphModel>
  </diagram>
  <diagram id="R69AUn6Ic9nVBbt9s_Up" name="Bài 2">
    <mxGraphModel dx="786" dy="421" grid="1" gridSize="10" guides="1" tooltips="1" connect="1" arrows="1" fold="1" page="1" pageScale="1" pageWidth="850" pageHeight="1100" math="0" shadow="0">
      <root>
        <mxCell id="0" />
        <mxCell id="1" parent="0" />
        <mxCell id="XhwedVV1WgZArVXTlH4M-1" style="edgeStyle=orthogonalEdgeStyle;rounded=0;orthogonalLoop=1;jettySize=auto;html=1;" parent="1" source="XhwedVV1WgZArVXTlH4M-2" target="XhwedVV1WgZArVXTlH4M-4" edge="1">
          <mxGeometry relative="1" as="geometry">
            <mxPoint x="460" y="300" as="targetPoint" />
          </mxGeometry>
        </mxCell>
        <mxCell id="XhwedVV1WgZArVXTlH4M-2" value="START" style="ellipse;whiteSpace=wrap;html=1;" parent="1" vertex="1">
          <mxGeometry x="400" y="160" width="120" height="80" as="geometry" />
        </mxCell>
        <mxCell id="XhwedVV1WgZArVXTlH4M-3" style="edgeStyle=orthogonalEdgeStyle;rounded=0;orthogonalLoop=1;jettySize=auto;html=1;" parent="1" source="XhwedVV1WgZArVXTlH4M-4" edge="1">
          <mxGeometry relative="1" as="geometry">
            <mxPoint x="460" y="410" as="targetPoint" />
          </mxGeometry>
        </mxCell>
        <mxCell id="XhwedVV1WgZArVXTlH4M-4" value="Input :N" style="shape=parallelogram;perimeter=parallelogramPerimeter;whiteSpace=wrap;html=1;fixedSize=1;" parent="1" vertex="1">
          <mxGeometry x="400" y="270" width="120" height="50" as="geometry" />
        </mxCell>
        <mxCell id="XhwedVV1WgZArVXTlH4M-5" value="NO" style="edgeStyle=orthogonalEdgeStyle;rounded=0;orthogonalLoop=1;jettySize=auto;html=1;" parent="1" source="XhwedVV1WgZArVXTlH4M-7" edge="1">
          <mxGeometry relative="1" as="geometry">
            <mxPoint x="630" y="410" as="targetPoint" />
          </mxGeometry>
        </mxCell>
        <mxCell id="XhwedVV1WgZArVXTlH4M-6" value="YES" style="edgeStyle=orthogonalEdgeStyle;rounded=0;orthogonalLoop=1;jettySize=auto;html=1;" parent="1" source="XhwedVV1WgZArVXTlH4M-7" target="XhwedVV1WgZArVXTlH4M-9" edge="1">
          <mxGeometry relative="1" as="geometry">
            <mxPoint x="460" y="520" as="targetPoint" />
          </mxGeometry>
        </mxCell>
        <mxCell id="XhwedVV1WgZArVXTlH4M-7" value="N%2==0" style="rhombus;whiteSpace=wrap;html=1;" parent="1" vertex="1">
          <mxGeometry x="400" y="370" width="120" height="80" as="geometry" />
        </mxCell>
        <mxCell id="XhwedVV1WgZArVXTlH4M-8" style="edgeStyle=orthogonalEdgeStyle;rounded=0;orthogonalLoop=1;jettySize=auto;html=1;" parent="1" source="XhwedVV1WgZArVXTlH4M-9" target="XhwedVV1WgZArVXTlH4M-12" edge="1">
          <mxGeometry relative="1" as="geometry">
            <mxPoint x="660" y="530" as="targetPoint" />
          </mxGeometry>
        </mxCell>
        <mxCell id="XhwedVV1WgZArVXTlH4M-9" value="Output : N là số nguyên&amp;nbsp;" style="shape=parallelogram;perimeter=parallelogramPerimeter;whiteSpace=wrap;html=1;fixedSize=1;" parent="1" vertex="1">
          <mxGeometry x="370" y="500" width="180" height="60" as="geometry" />
        </mxCell>
        <mxCell id="XhwedVV1WgZArVXTlH4M-10" style="edgeStyle=orthogonalEdgeStyle;rounded=0;orthogonalLoop=1;jettySize=auto;html=1;" parent="1" source="XhwedVV1WgZArVXTlH4M-11" target="XhwedVV1WgZArVXTlH4M-12" edge="1">
          <mxGeometry relative="1" as="geometry" />
        </mxCell>
        <mxCell id="XhwedVV1WgZArVXTlH4M-11" value="Output : N không phải là số nguyên" style="shape=parallelogram;perimeter=parallelogramPerimeter;whiteSpace=wrap;html=1;fixedSize=1;" parent="1" vertex="1">
          <mxGeometry x="620" y="380" width="190" height="60" as="geometry" />
        </mxCell>
        <mxCell id="XhwedVV1WgZArVXTlH4M-12" value="END" style="ellipse;whiteSpace=wrap;html=1;" parent="1" vertex="1">
          <mxGeometry x="640" y="490" width="120" height="80" as="geometry" />
        </mxCell>
      </root>
    </mxGraphModel>
  </diagram>
  <diagram id="UaxHgwo_Tzaebz9GMPih" name="Bài 3">
    <mxGraphModel dx="786" dy="421" grid="1" gridSize="10" guides="1" tooltips="1" connect="1" arrows="1" fold="1" page="1" pageScale="1" pageWidth="850" pageHeight="1100" math="0" shadow="0">
      <root>
        <mxCell id="0" />
        <mxCell id="1" parent="0" />
        <mxCell id="95uF3TyDA03_wg4MY1F--1" style="edgeStyle=orthogonalEdgeStyle;rounded=0;orthogonalLoop=1;jettySize=auto;html=1;" parent="1" source="95uF3TyDA03_wg4MY1F--2" target="95uF3TyDA03_wg4MY1F--4" edge="1">
          <mxGeometry relative="1" as="geometry">
            <mxPoint x="495" y="280" as="targetPoint" />
          </mxGeometry>
        </mxCell>
        <mxCell id="95uF3TyDA03_wg4MY1F--2" value="START" style="ellipse;whiteSpace=wrap;html=1;" parent="1" vertex="1">
          <mxGeometry x="435" y="150" width="120" height="80" as="geometry" />
        </mxCell>
        <mxCell id="95uF3TyDA03_wg4MY1F--3" style="edgeStyle=orthogonalEdgeStyle;rounded=0;orthogonalLoop=1;jettySize=auto;html=1;" parent="1" source="95uF3TyDA03_wg4MY1F--4" target="95uF3TyDA03_wg4MY1F--6" edge="1">
          <mxGeometry relative="1" as="geometry">
            <mxPoint x="495" y="390" as="targetPoint" />
          </mxGeometry>
        </mxCell>
        <mxCell id="95uF3TyDA03_wg4MY1F--4" value="Input : A,B" style="shape=parallelogram;perimeter=parallelogramPerimeter;whiteSpace=wrap;html=1;fixedSize=1;" parent="1" vertex="1">
          <mxGeometry x="435" y="250" width="120" height="70" as="geometry" />
        </mxCell>
        <mxCell id="95uF3TyDA03_wg4MY1F--5" style="edgeStyle=orthogonalEdgeStyle;rounded=0;orthogonalLoop=1;jettySize=auto;html=1;" parent="1" source="95uF3TyDA03_wg4MY1F--6" target="95uF3TyDA03_wg4MY1F--8" edge="1">
          <mxGeometry relative="1" as="geometry">
            <mxPoint x="495" y="470" as="targetPoint" />
          </mxGeometry>
        </mxCell>
        <mxCell id="95uF3TyDA03_wg4MY1F--6" value="S = A + B&amp;nbsp;" style="rounded=0;whiteSpace=wrap;html=1;" parent="1" vertex="1">
          <mxGeometry x="435" y="360" width="120" height="60" as="geometry" />
        </mxCell>
        <mxCell id="95uF3TyDA03_wg4MY1F--7" style="edgeStyle=orthogonalEdgeStyle;rounded=0;orthogonalLoop=1;jettySize=auto;html=1;" parent="1" source="95uF3TyDA03_wg4MY1F--8" target="95uF3TyDA03_wg4MY1F--9" edge="1">
          <mxGeometry relative="1" as="geometry">
            <mxPoint x="495" y="560" as="targetPoint" />
          </mxGeometry>
        </mxCell>
        <mxCell id="95uF3TyDA03_wg4MY1F--8" value="Output : kết quả của S" style="shape=parallelogram;perimeter=parallelogramPerimeter;whiteSpace=wrap;html=1;fixedSize=1;" parent="1" vertex="1">
          <mxGeometry x="410" y="450" width="170" height="60" as="geometry" />
        </mxCell>
        <mxCell id="95uF3TyDA03_wg4MY1F--9" value="END" style="ellipse;whiteSpace=wrap;html=1;" parent="1" vertex="1">
          <mxGeometry x="435" y="560" width="120" height="80" as="geometry" />
        </mxCell>
      </root>
    </mxGraphModel>
  </diagram>
  <diagram id="2tBMvkzQIb4bYS9rPpSq" name="Bài 4">
    <mxGraphModel dx="786" dy="421" grid="1" gridSize="10" guides="1" tooltips="1" connect="1" arrows="1" fold="1" page="1" pageScale="1" pageWidth="850" pageHeight="1100" math="0" shadow="0">
      <root>
        <mxCell id="0" />
        <mxCell id="1" parent="0" />
        <mxCell id="vUaRKS4OiJrKS39mkDOH-1" style="edgeStyle=orthogonalEdgeStyle;rounded=0;orthogonalLoop=1;jettySize=auto;html=1;" parent="1" source="vUaRKS4OiJrKS39mkDOH-2" target="vUaRKS4OiJrKS39mkDOH-4" edge="1">
          <mxGeometry relative="1" as="geometry">
            <mxPoint x="485" y="330" as="targetPoint" />
          </mxGeometry>
        </mxCell>
        <mxCell id="vUaRKS4OiJrKS39mkDOH-2" value="START" style="ellipse;whiteSpace=wrap;html=1;" parent="1" vertex="1">
          <mxGeometry x="425" y="150" width="120" height="80" as="geometry" />
        </mxCell>
        <mxCell id="vUaRKS4OiJrKS39mkDOH-3" style="edgeStyle=orthogonalEdgeStyle;rounded=0;orthogonalLoop=1;jettySize=auto;html=1;" parent="1" source="vUaRKS4OiJrKS39mkDOH-4" target="vUaRKS4OiJrKS39mkDOH-7" edge="1">
          <mxGeometry relative="1" as="geometry">
            <mxPoint x="485" y="450" as="targetPoint" />
          </mxGeometry>
        </mxCell>
        <mxCell id="vUaRKS4OiJrKS39mkDOH-4" value="Input : Điểm" style="shape=parallelogram;perimeter=parallelogramPerimeter;whiteSpace=wrap;html=1;fixedSize=1;" parent="1" vertex="1">
          <mxGeometry x="425" y="300" width="120" height="60" as="geometry" />
        </mxCell>
        <mxCell id="vUaRKS4OiJrKS39mkDOH-5" value="YES" style="edgeStyle=orthogonalEdgeStyle;rounded=0;orthogonalLoop=1;jettySize=auto;html=1;" parent="1" source="vUaRKS4OiJrKS39mkDOH-7" edge="1">
          <mxGeometry relative="1" as="geometry">
            <mxPoint x="655" y="450" as="targetPoint" />
          </mxGeometry>
        </mxCell>
        <mxCell id="vUaRKS4OiJrKS39mkDOH-6" value="NO" style="edgeStyle=orthogonalEdgeStyle;rounded=0;orthogonalLoop=1;jettySize=auto;html=1;" parent="1" source="vUaRKS4OiJrKS39mkDOH-7" target="vUaRKS4OiJrKS39mkDOH-9" edge="1">
          <mxGeometry relative="1" as="geometry">
            <mxPoint x="485" y="580" as="targetPoint" />
          </mxGeometry>
        </mxCell>
        <mxCell id="vUaRKS4OiJrKS39mkDOH-7" value="Điểm &amp;gt; 5" style="rhombus;whiteSpace=wrap;html=1;" parent="1" vertex="1">
          <mxGeometry x="420" y="410" width="130" height="80" as="geometry" />
        </mxCell>
        <mxCell id="vUaRKS4OiJrKS39mkDOH-8" style="edgeStyle=orthogonalEdgeStyle;rounded=0;orthogonalLoop=1;jettySize=auto;html=1;" parent="1" source="vUaRKS4OiJrKS39mkDOH-9" edge="1">
          <mxGeometry relative="1" as="geometry">
            <mxPoint x="665" y="580" as="targetPoint" />
          </mxGeometry>
        </mxCell>
        <mxCell id="vUaRKS4OiJrKS39mkDOH-9" value="Output : Không đạt" style="rounded=0;whiteSpace=wrap;html=1;" parent="1" vertex="1">
          <mxGeometry x="425" y="550" width="120" height="60" as="geometry" />
        </mxCell>
        <mxCell id="vUaRKS4OiJrKS39mkDOH-10" style="edgeStyle=orthogonalEdgeStyle;rounded=0;orthogonalLoop=1;jettySize=auto;html=1;" parent="1" source="vUaRKS4OiJrKS39mkDOH-11" target="vUaRKS4OiJrKS39mkDOH-12" edge="1">
          <mxGeometry relative="1" as="geometry">
            <mxPoint x="715" y="530" as="targetPoint" />
          </mxGeometry>
        </mxCell>
        <mxCell id="vUaRKS4OiJrKS39mkDOH-11" value="Output : Đạt" style="rounded=0;whiteSpace=wrap;html=1;" parent="1" vertex="1">
          <mxGeometry x="655" y="420" width="120" height="60" as="geometry" />
        </mxCell>
        <mxCell id="vUaRKS4OiJrKS39mkDOH-12" value="END" style="ellipse;whiteSpace=wrap;html=1;" parent="1" vertex="1">
          <mxGeometry x="655" y="540" width="120" height="80" as="geometry" />
        </mxCell>
      </root>
    </mxGraphModel>
  </diagram>
  <diagram id="jLlbjaF-bQK-ZSnLuG82" name="Bài 5">
    <mxGraphModel dx="786" dy="421" grid="1" gridSize="10" guides="1" tooltips="1" connect="1" arrows="1" fold="1" page="1" pageScale="1" pageWidth="850" pageHeight="1100" math="0" shadow="0">
      <root>
        <mxCell id="0" />
        <mxCell id="1" parent="0" />
        <mxCell id="Yhzyt_t3MaqRVO2H7p6l-1" style="edgeStyle=orthogonalEdgeStyle;rounded=0;orthogonalLoop=1;jettySize=auto;html=1;" parent="1" source="Yhzyt_t3MaqRVO2H7p6l-2" target="Yhzyt_t3MaqRVO2H7p6l-4" edge="1">
          <mxGeometry relative="1" as="geometry">
            <mxPoint x="760" y="250" as="targetPoint" />
          </mxGeometry>
        </mxCell>
        <mxCell id="Yhzyt_t3MaqRVO2H7p6l-2" value="START" style="ellipse;whiteSpace=wrap;html=1;" parent="1" vertex="1">
          <mxGeometry x="700" y="110" width="120" height="80" as="geometry" />
        </mxCell>
        <mxCell id="Yhzyt_t3MaqRVO2H7p6l-3" style="edgeStyle=orthogonalEdgeStyle;rounded=0;orthogonalLoop=1;jettySize=auto;html=1;" parent="1" source="Yhzyt_t3MaqRVO2H7p6l-4" target="Yhzyt_t3MaqRVO2H7p6l-7" edge="1">
          <mxGeometry relative="1" as="geometry">
            <mxPoint x="760" y="330" as="targetPoint" />
          </mxGeometry>
        </mxCell>
        <mxCell id="Yhzyt_t3MaqRVO2H7p6l-4" value="Input : Điểm&amp;nbsp;" style="shape=parallelogram;perimeter=parallelogramPerimeter;whiteSpace=wrap;html=1;fixedSize=1;" parent="1" vertex="1">
          <mxGeometry x="700" y="220" width="120" height="60" as="geometry" />
        </mxCell>
        <mxCell id="Yhzyt_t3MaqRVO2H7p6l-5" value="YES" style="edgeStyle=orthogonalEdgeStyle;rounded=0;orthogonalLoop=1;jettySize=auto;html=1;" parent="1" source="Yhzyt_t3MaqRVO2H7p6l-7" edge="1">
          <mxGeometry relative="1" as="geometry">
            <mxPoint x="880" y="360" as="targetPoint" />
          </mxGeometry>
        </mxCell>
        <mxCell id="Yhzyt_t3MaqRVO2H7p6l-6" value="NO" style="edgeStyle=orthogonalEdgeStyle;rounded=0;orthogonalLoop=1;jettySize=auto;html=1;" parent="1" source="Yhzyt_t3MaqRVO2H7p6l-7" target="Yhzyt_t3MaqRVO2H7p6l-12" edge="1">
          <mxGeometry relative="1" as="geometry">
            <mxPoint x="760" y="480" as="targetPoint" />
          </mxGeometry>
        </mxCell>
        <mxCell id="Yhzyt_t3MaqRVO2H7p6l-7" value="ĐIểm &amp;lt;4" style="rhombus;whiteSpace=wrap;html=1;" parent="1" vertex="1">
          <mxGeometry x="720" y="320" width="80" height="80" as="geometry" />
        </mxCell>
        <mxCell id="Yhzyt_t3MaqRVO2H7p6l-8" style="edgeStyle=orthogonalEdgeStyle;rounded=0;orthogonalLoop=1;jettySize=auto;html=1;entryX=1;entryY=0.5;entryDx=0;entryDy=0;" parent="1" source="Yhzyt_t3MaqRVO2H7p6l-9" target="Yhzyt_t3MaqRVO2H7p6l-29" edge="1">
          <mxGeometry relative="1" as="geometry">
            <mxPoint x="1160" y="1220" as="targetPoint" />
            <Array as="points">
              <mxPoint x="1150" y="360" />
              <mxPoint x="1150" y="1225" />
            </Array>
          </mxGeometry>
        </mxCell>
        <mxCell id="Yhzyt_t3MaqRVO2H7p6l-9" value="Output : Không Đạt" style="shape=parallelogram;perimeter=parallelogramPerimeter;whiteSpace=wrap;html=1;fixedSize=1;" parent="1" vertex="1">
          <mxGeometry x="870" y="330" width="160" height="60" as="geometry" />
        </mxCell>
        <mxCell id="Yhzyt_t3MaqRVO2H7p6l-10" value="YES" style="edgeStyle=orthogonalEdgeStyle;rounded=0;orthogonalLoop=1;jettySize=auto;html=1;" parent="1" source="Yhzyt_t3MaqRVO2H7p6l-12" target="Yhzyt_t3MaqRVO2H7p6l-14" edge="1">
          <mxGeometry relative="1" as="geometry" />
        </mxCell>
        <mxCell id="Yhzyt_t3MaqRVO2H7p6l-11" value="NO" style="edgeStyle=orthogonalEdgeStyle;rounded=0;orthogonalLoop=1;jettySize=auto;html=1;" parent="1" source="Yhzyt_t3MaqRVO2H7p6l-12" target="Yhzyt_t3MaqRVO2H7p6l-17" edge="1">
          <mxGeometry relative="1" as="geometry" />
        </mxCell>
        <mxCell id="Yhzyt_t3MaqRVO2H7p6l-12" value="4&amp;lt;=Điểm&amp;lt;=6&amp;nbsp;" style="rhombus;whiteSpace=wrap;html=1;" parent="1" vertex="1">
          <mxGeometry x="685" y="480" width="150" height="80" as="geometry" />
        </mxCell>
        <mxCell id="Yhzyt_t3MaqRVO2H7p6l-13" style="edgeStyle=orthogonalEdgeStyle;rounded=0;orthogonalLoop=1;jettySize=auto;html=1;exitX=0;exitY=0.5;exitDx=0;exitDy=0;entryX=0;entryY=0.5;entryDx=0;entryDy=0;" parent="1" source="Yhzyt_t3MaqRVO2H7p6l-14" target="Yhzyt_t3MaqRVO2H7p6l-29" edge="1">
          <mxGeometry relative="1" as="geometry">
            <mxPoint x="380" y="1212.6666259765625" as="targetPoint" />
          </mxGeometry>
        </mxCell>
        <mxCell id="Yhzyt_t3MaqRVO2H7p6l-14" value="Output : Trung bình" style="whiteSpace=wrap;html=1;" parent="1" vertex="1">
          <mxGeometry x="459" y="490" width="120" height="60" as="geometry" />
        </mxCell>
        <mxCell id="Yhzyt_t3MaqRVO2H7p6l-15" value="YES" style="edgeStyle=orthogonalEdgeStyle;rounded=0;orthogonalLoop=1;jettySize=auto;html=1;" parent="1" source="Yhzyt_t3MaqRVO2H7p6l-17" target="Yhzyt_t3MaqRVO2H7p6l-19" edge="1">
          <mxGeometry relative="1" as="geometry" />
        </mxCell>
        <mxCell id="Yhzyt_t3MaqRVO2H7p6l-16" value="NO" style="edgeStyle=orthogonalEdgeStyle;rounded=0;orthogonalLoop=1;jettySize=auto;html=1;" parent="1" source="Yhzyt_t3MaqRVO2H7p6l-17" edge="1">
          <mxGeometry relative="1" as="geometry">
            <mxPoint x="760" y="810" as="targetPoint" />
          </mxGeometry>
        </mxCell>
        <mxCell id="Yhzyt_t3MaqRVO2H7p6l-17" value="&#xa;&lt;span style=&quot;color: rgb(0, 0, 0); font-family: Roboto, sans-serif; font-size: 16px; font-style: normal; font-variant-ligatures: normal; font-variant-caps: normal; font-weight: 400; letter-spacing: normal; orphans: 2; text-align: left; text-indent: 0px; text-transform: none; widows: 2; word-spacing: 0px; -webkit-text-stroke-width: 0px; white-space: pre-wrap; background-color: rgb(255, 255, 255); text-decoration-thickness: initial; text-decoration-style: initial; text-decoration-color: initial; display: inline !important; float: none;&quot;&gt;6 &amp;lt; Điểm &amp;lt;= 8 &lt;/span&gt;&#xa;&#xa;" style="rhombus;whiteSpace=wrap;html=1;" parent="1" vertex="1">
          <mxGeometry x="665" y="640" width="190" height="90" as="geometry" />
        </mxCell>
        <mxCell id="Yhzyt_t3MaqRVO2H7p6l-18" style="edgeStyle=orthogonalEdgeStyle;rounded=0;orthogonalLoop=1;jettySize=auto;html=1;entryX=1;entryY=0;entryDx=0;entryDy=0;" parent="1" source="Yhzyt_t3MaqRVO2H7p6l-19" target="Yhzyt_t3MaqRVO2H7p6l-29" edge="1">
          <mxGeometry relative="1" as="geometry">
            <mxPoint x="1030" y="1130" as="targetPoint" />
            <Array as="points">
              <mxPoint x="1030" y="923" />
              <mxPoint x="1031" y="923" />
              <mxPoint x="1031" y="1151" />
            </Array>
          </mxGeometry>
        </mxCell>
        <mxCell id="Yhzyt_t3MaqRVO2H7p6l-19" value="Output : Khá" style="whiteSpace=wrap;html=1;" parent="1" vertex="1">
          <mxGeometry x="970" y="655" width="120" height="60" as="geometry" />
        </mxCell>
        <mxCell id="Yhzyt_t3MaqRVO2H7p6l-20" value="NO" style="edgeStyle=orthogonalEdgeStyle;rounded=0;orthogonalLoop=1;jettySize=auto;html=1;" parent="1" source="Yhzyt_t3MaqRVO2H7p6l-22" target="Yhzyt_t3MaqRVO2H7p6l-24" edge="1">
          <mxGeometry relative="1" as="geometry" />
        </mxCell>
        <mxCell id="Yhzyt_t3MaqRVO2H7p6l-21" value="YES" style="edgeStyle=orthogonalEdgeStyle;rounded=0;orthogonalLoop=1;jettySize=auto;html=1;" parent="1" source="Yhzyt_t3MaqRVO2H7p6l-22" target="Yhzyt_t3MaqRVO2H7p6l-26" edge="1">
          <mxGeometry relative="1" as="geometry" />
        </mxCell>
        <mxCell id="Yhzyt_t3MaqRVO2H7p6l-22" value="&#xa;&lt;span style=&quot;color: rgb(0, 0, 0); font-family: Roboto, sans-serif; font-size: 16px; font-style: normal; font-variant-ligatures: normal; font-variant-caps: normal; font-weight: 400; letter-spacing: normal; orphans: 2; text-align: left; text-indent: 0px; text-transform: none; widows: 2; word-spacing: 0px; -webkit-text-stroke-width: 0px; white-space: pre-wrap; background-color: rgb(255, 255, 255); text-decoration-thickness: initial; text-decoration-style: initial; text-decoration-color: initial; display: inline !important; float: none;&quot;&gt;8 &amp;lt; Điểm &amp;lt;= 9&lt;/span&gt;&#xa;&#xa;" style="rhombus;whiteSpace=wrap;html=1;" parent="1" vertex="1">
          <mxGeometry x="655" y="810" width="210" height="80" as="geometry" />
        </mxCell>
        <mxCell id="Yhzyt_t3MaqRVO2H7p6l-23" value="YES" style="edgeStyle=orthogonalEdgeStyle;rounded=0;orthogonalLoop=1;jettySize=auto;html=1;" parent="1" source="Yhzyt_t3MaqRVO2H7p6l-24" target="Yhzyt_t3MaqRVO2H7p6l-28" edge="1">
          <mxGeometry relative="1" as="geometry" />
        </mxCell>
        <mxCell id="Yhzyt_t3MaqRVO2H7p6l-24" value="&lt;span style=&quot;font-family: Roboto, sans-serif; font-size: 16px; text-align: left; white-space-collapse: preserve; background-color: rgb(255, 255, 255);&quot;&gt;9 &amp;lt; Điểm &amp;lt;=10&lt;/span&gt;" style="rhombus;whiteSpace=wrap;html=1;" parent="1" vertex="1">
          <mxGeometry x="655" y="970" width="210" height="80" as="geometry" />
        </mxCell>
        <mxCell id="Yhzyt_t3MaqRVO2H7p6l-25" style="edgeStyle=orthogonalEdgeStyle;rounded=0;orthogonalLoop=1;jettySize=auto;html=1;" parent="1" source="Yhzyt_t3MaqRVO2H7p6l-26" target="Yhzyt_t3MaqRVO2H7p6l-29" edge="1">
          <mxGeometry relative="1" as="geometry">
            <mxPoint x="400" y="1111.3333740234375" as="targetPoint" />
            <Array as="points">
              <mxPoint x="390" y="850" />
              <mxPoint x="390" y="996" />
              <mxPoint x="401" y="996" />
            </Array>
          </mxGeometry>
        </mxCell>
        <mxCell id="Yhzyt_t3MaqRVO2H7p6l-26" value="Output : Giỏi" style="whiteSpace=wrap;html=1;" parent="1" vertex="1">
          <mxGeometry x="410" y="820" width="120" height="60" as="geometry" />
        </mxCell>
        <mxCell id="Yhzyt_t3MaqRVO2H7p6l-27" style="edgeStyle=orthogonalEdgeStyle;rounded=0;orthogonalLoop=1;jettySize=auto;html=1;exitX=0.5;exitY=1;exitDx=0;exitDy=0;" parent="1" source="Yhzyt_t3MaqRVO2H7p6l-28" target="Yhzyt_t3MaqRVO2H7p6l-29" edge="1">
          <mxGeometry relative="1" as="geometry">
            <mxPoint x="470" y="1110" as="targetPoint" />
          </mxGeometry>
        </mxCell>
        <mxCell id="Yhzyt_t3MaqRVO2H7p6l-28" value="Output : Xuất Xắc" style="rounded=1;whiteSpace=wrap;html=1;" parent="1" vertex="1">
          <mxGeometry x="410" y="980" width="120" height="60" as="geometry" />
        </mxCell>
        <mxCell id="Yhzyt_t3MaqRVO2H7p6l-29" value="END" style="ellipse;whiteSpace=wrap;html=1;" parent="1" vertex="1">
          <mxGeometry x="380" y="1120" width="750" height="210" as="geometry" />
        </mxCell>
      </root>
    </mxGraphModel>
  </diagram>
  <diagram id="0Pxd5i-GtjbIY0j0m9mn" name="Bài 6">
    <mxGraphModel dx="786" dy="421" grid="1" gridSize="10" guides="1" tooltips="1" connect="1" arrows="1" fold="1" page="1" pageScale="1" pageWidth="850" pageHeight="1100" math="0" shadow="0">
      <root>
        <mxCell id="0" />
        <mxCell id="1" parent="0" />
        <mxCell id="gFnUeUL5JsTz5Bu-gwK8-1" style="edgeStyle=orthogonalEdgeStyle;rounded=0;orthogonalLoop=1;jettySize=auto;html=1;" parent="1" source="gFnUeUL5JsTz5Bu-gwK8-2" target="gFnUeUL5JsTz5Bu-gwK8-4" edge="1">
          <mxGeometry relative="1" as="geometry">
            <mxPoint x="630" y="220" as="targetPoint" />
          </mxGeometry>
        </mxCell>
        <mxCell id="gFnUeUL5JsTz5Bu-gwK8-2" value="STRAT" style="ellipse;whiteSpace=wrap;html=1;" parent="1" vertex="1">
          <mxGeometry x="570" y="60" width="120" height="80" as="geometry" />
        </mxCell>
        <mxCell id="gFnUeUL5JsTz5Bu-gwK8-3" value="" style="edgeStyle=orthogonalEdgeStyle;rounded=0;orthogonalLoop=1;jettySize=auto;html=1;" parent="1" source="gFnUeUL5JsTz5Bu-gwK8-4" target="gFnUeUL5JsTz5Bu-gwK8-7" edge="1">
          <mxGeometry relative="1" as="geometry" />
        </mxCell>
        <mxCell id="gFnUeUL5JsTz5Bu-gwK8-4" value="Input a, b" style="shape=parallelogram;perimeter=parallelogramPerimeter;whiteSpace=wrap;html=1;fixedSize=1;" parent="1" vertex="1">
          <mxGeometry x="570" y="190" width="120" height="60" as="geometry" />
        </mxCell>
        <mxCell id="gFnUeUL5JsTz5Bu-gwK8-5" value="NO" style="edgeStyle=orthogonalEdgeStyle;rounded=0;orthogonalLoop=1;jettySize=auto;html=1;" parent="1" source="gFnUeUL5JsTz5Bu-gwK8-7" target="gFnUeUL5JsTz5Bu-gwK8-9" edge="1">
          <mxGeometry relative="1" as="geometry" />
        </mxCell>
        <mxCell id="gFnUeUL5JsTz5Bu-gwK8-6" value="YES" style="edgeStyle=orthogonalEdgeStyle;rounded=0;orthogonalLoop=1;jettySize=auto;html=1;" parent="1" source="gFnUeUL5JsTz5Bu-gwK8-7" target="gFnUeUL5JsTz5Bu-gwK8-12" edge="1">
          <mxGeometry relative="1" as="geometry" />
        </mxCell>
        <mxCell id="gFnUeUL5JsTz5Bu-gwK8-7" value="a=0" style="rhombus;whiteSpace=wrap;html=1;" parent="1" vertex="1">
          <mxGeometry x="590" y="320" width="80" height="80" as="geometry" />
        </mxCell>
        <mxCell id="gFnUeUL5JsTz5Bu-gwK8-8" style="edgeStyle=orthogonalEdgeStyle;rounded=0;orthogonalLoop=1;jettySize=auto;html=1;entryX=1;entryY=0.5;entryDx=0;entryDy=0;" parent="1" source="gFnUeUL5JsTz5Bu-gwK8-9" target="gFnUeUL5JsTz5Bu-gwK8-17" edge="1">
          <mxGeometry relative="1" as="geometry" />
        </mxCell>
        <mxCell id="gFnUeUL5JsTz5Bu-gwK8-9" value="Output : X= -b/a" style="shape=parallelogram;perimeter=parallelogramPerimeter;whiteSpace=wrap;html=1;fixedSize=1;" parent="1" vertex="1">
          <mxGeometry x="730" y="330" width="120" height="60" as="geometry" />
        </mxCell>
        <mxCell id="gFnUeUL5JsTz5Bu-gwK8-10" value="No" style="edgeStyle=orthogonalEdgeStyle;rounded=0;orthogonalLoop=1;jettySize=auto;html=1;" parent="1" source="gFnUeUL5JsTz5Bu-gwK8-12" target="gFnUeUL5JsTz5Bu-gwK8-14" edge="1">
          <mxGeometry relative="1" as="geometry" />
        </mxCell>
        <mxCell id="gFnUeUL5JsTz5Bu-gwK8-11" value="YES" style="edgeStyle=orthogonalEdgeStyle;rounded=0;orthogonalLoop=1;jettySize=auto;html=1;" parent="1" source="gFnUeUL5JsTz5Bu-gwK8-12" target="gFnUeUL5JsTz5Bu-gwK8-16" edge="1">
          <mxGeometry relative="1" as="geometry" />
        </mxCell>
        <mxCell id="gFnUeUL5JsTz5Bu-gwK8-12" value="b=0" style="rhombus;whiteSpace=wrap;html=1;" parent="1" vertex="1">
          <mxGeometry x="590" y="480" width="80" height="80" as="geometry" />
        </mxCell>
        <mxCell id="gFnUeUL5JsTz5Bu-gwK8-13" style="edgeStyle=orthogonalEdgeStyle;rounded=0;orthogonalLoop=1;jettySize=auto;html=1;entryX=0;entryY=0.5;entryDx=0;entryDy=0;" parent="1" source="gFnUeUL5JsTz5Bu-gwK8-14" target="gFnUeUL5JsTz5Bu-gwK8-17" edge="1">
          <mxGeometry relative="1" as="geometry" />
        </mxCell>
        <mxCell id="gFnUeUL5JsTz5Bu-gwK8-14" value="Output : vô nghiệm&amp;nbsp;" style="shape=parallelogram;perimeter=parallelogramPerimeter;whiteSpace=wrap;html=1;fixedSize=1;" parent="1" vertex="1">
          <mxGeometry x="360" y="490" width="170" height="60" as="geometry" />
        </mxCell>
        <mxCell id="gFnUeUL5JsTz5Bu-gwK8-15" value="" style="edgeStyle=orthogonalEdgeStyle;rounded=0;orthogonalLoop=1;jettySize=auto;html=1;" parent="1" source="gFnUeUL5JsTz5Bu-gwK8-16" target="gFnUeUL5JsTz5Bu-gwK8-17" edge="1">
          <mxGeometry relative="1" as="geometry" />
        </mxCell>
        <mxCell id="gFnUeUL5JsTz5Bu-gwK8-16" value="Output : có nghiệm" style="shape=parallelogram;perimeter=parallelogramPerimeter;whiteSpace=wrap;html=1;fixedSize=1;" parent="1" vertex="1">
          <mxGeometry x="560" y="660" width="140" height="60" as="geometry" />
        </mxCell>
        <mxCell id="gFnUeUL5JsTz5Bu-gwK8-17" value="END" style="ellipse;whiteSpace=wrap;html=1;" parent="1" vertex="1">
          <mxGeometry x="525" y="800" width="210" height="80" as="geometry" />
        </mxCell>
      </root>
    </mxGraphModel>
  </diagram>
  <diagram id="SijunIe2rg9-a93xhSvu" name="bài 7">
    <mxGraphModel dx="786" dy="421" grid="1" gridSize="10" guides="1" tooltips="1" connect="1" arrows="1" fold="1" page="1" pageScale="1" pageWidth="850" pageHeight="1100" math="0" shadow="0">
      <root>
        <mxCell id="0" />
        <mxCell id="1" parent="0" />
        <mxCell id="RnNkfq9o71cScIKEVwpV-4" value="" style="edgeStyle=orthogonalEdgeStyle;rounded=0;orthogonalLoop=1;jettySize=auto;html=1;" edge="1" parent="1" source="RnNkfq9o71cScIKEVwpV-1" target="RnNkfq9o71cScIKEVwpV-3">
          <mxGeometry relative="1" as="geometry" />
        </mxCell>
        <mxCell id="RnNkfq9o71cScIKEVwpV-1" value="START" style="ellipse;whiteSpace=wrap;html=1;" vertex="1" parent="1">
          <mxGeometry x="410" y="120" width="120" height="80" as="geometry" />
        </mxCell>
        <mxCell id="RnNkfq9o71cScIKEVwpV-8" value="" style="edgeStyle=orthogonalEdgeStyle;rounded=0;orthogonalLoop=1;jettySize=auto;html=1;" edge="1" parent="1" source="RnNkfq9o71cScIKEVwpV-3" target="RnNkfq9o71cScIKEVwpV-7">
          <mxGeometry relative="1" as="geometry" />
        </mxCell>
        <mxCell id="RnNkfq9o71cScIKEVwpV-3" value="Input : A,B&lt;div&gt;+,-,*,\&lt;/div&gt;" style="shape=parallelogram;perimeter=parallelogramPerimeter;whiteSpace=wrap;html=1;fixedSize=1;" vertex="1" parent="1">
          <mxGeometry x="410" y="290" width="120" height="60" as="geometry" />
        </mxCell>
        <mxCell id="RnNkfq9o71cScIKEVwpV-10" value="" style="edgeStyle=orthogonalEdgeStyle;rounded=0;orthogonalLoop=1;jettySize=auto;html=1;" edge="1" parent="1" source="RnNkfq9o71cScIKEVwpV-7" target="RnNkfq9o71cScIKEVwpV-9">
          <mxGeometry relative="1" as="geometry" />
        </mxCell>
        <mxCell id="RnNkfq9o71cScIKEVwpV-12" value="NO" style="edgeLabel;html=1;align=center;verticalAlign=middle;resizable=0;points=[];" vertex="1" connectable="0" parent="RnNkfq9o71cScIKEVwpV-10">
          <mxGeometry x="-0.4444" y="3" relative="1" as="geometry">
            <mxPoint as="offset" />
          </mxGeometry>
        </mxCell>
        <mxCell id="RnNkfq9o71cScIKEVwpV-11" value="YES" style="edgeStyle=orthogonalEdgeStyle;rounded=0;orthogonalLoop=1;jettySize=auto;html=1;entryX=1;entryY=0.5;entryDx=0;entryDy=0;exitX=1;exitY=0.5;exitDx=0;exitDy=0;" edge="1" parent="1" target="RnNkfq9o71cScIKEVwpV-19">
          <mxGeometry relative="1" as="geometry">
            <mxPoint x="510" y="870" as="targetPoint" />
            <mxPoint x="500" y="460" as="sourcePoint" />
            <Array as="points">
              <mxPoint x="690" y="460" />
              <mxPoint x="690" y="900" />
            </Array>
          </mxGeometry>
        </mxCell>
        <mxCell id="RnNkfq9o71cScIKEVwpV-7" value="B=0" style="rhombus;whiteSpace=wrap;html=1;" vertex="1" parent="1">
          <mxGeometry x="430" y="420" width="80" height="80" as="geometry" />
        </mxCell>
        <mxCell id="RnNkfq9o71cScIKEVwpV-15" value="" style="edgeStyle=orthogonalEdgeStyle;rounded=0;orthogonalLoop=1;jettySize=auto;html=1;" edge="1" parent="1" source="RnNkfq9o71cScIKEVwpV-9" target="RnNkfq9o71cScIKEVwpV-14">
          <mxGeometry relative="1" as="geometry" />
        </mxCell>
        <mxCell id="RnNkfq9o71cScIKEVwpV-9" value="+= A+B&lt;div&gt;-=A-B&lt;/div&gt;&lt;div&gt;*=A*B&lt;/div&gt;&lt;div&gt;\=A\B&lt;/div&gt;" style="whiteSpace=wrap;html=1;" vertex="1" parent="1">
          <mxGeometry x="410" y="590" width="120" height="60" as="geometry" />
        </mxCell>
        <mxCell id="RnNkfq9o71cScIKEVwpV-17" value="" style="edgeStyle=orthogonalEdgeStyle;rounded=0;orthogonalLoop=1;jettySize=auto;html=1;" edge="1" parent="1" source="RnNkfq9o71cScIKEVwpV-14">
          <mxGeometry relative="1" as="geometry">
            <mxPoint x="470" y="860" as="targetPoint" />
          </mxGeometry>
        </mxCell>
        <mxCell id="RnNkfq9o71cScIKEVwpV-14" value="KQ" style="shape=parallelogram;perimeter=parallelogramPerimeter;whiteSpace=wrap;html=1;fixedSize=1;" vertex="1" parent="1">
          <mxGeometry x="410" y="730" width="120" height="60" as="geometry" />
        </mxCell>
        <mxCell id="RnNkfq9o71cScIKEVwpV-19" value="END" style="ellipse;whiteSpace=wrap;html=1;" vertex="1" parent="1">
          <mxGeometry x="410" y="860" width="120" height="80" as="geometry" />
        </mxCell>
      </root>
    </mxGraphModel>
  </diagram>
</mxfile>
